<svg width="20" height="20" viewBox="0 0 20 20" fill="none" xmlns="http://www.w3.org/2000/svg">
<path d="M7.58417 19.7784V13.1039H5.5225V10.0368H7.58417V8.71529C7.58417 5.29859 9.12417 3.71529 12.4658 3.71529C12.8 3.71529 13.2617 3.75042 13.6892 3.80144C14.0094 3.83451 14.327 3.889 14.64 3.96454V6.74557C14.4591 6.72863 14.2775 6.71858 14.0958 6.71546C13.8923 6.71015 13.6886 6.70764 13.485 6.70793C12.8958 6.70793 12.4358 6.78822 12.0892 6.96638C11.8561 7.08373 11.6602 7.26387 11.5233 7.48662C11.3083 7.83791 11.2117 8.31884 11.2117 8.95199V10.0368H14.4775L14.1558 11.7958L13.9167 13.1039H11.2117V20C16.1633 19.3995 20 15.1681 20 10.0368C20 4.49398 15.5225 0 10 0C4.4775 0 0 4.49398 0 10.0368C0 14.7441 3.22833 18.6935 7.58417 19.7784Z" fill="#28282C"/>
</svg>
