<svg width="411" height="76" viewBox="0 0 411 76" fill="none" xmlns="http://www.w3.org/2000/svg">
<mask id="path-1-outside-1_434_1346" maskUnits="userSpaceOnUse" x="-0.351562" y="-0.992737" width="411" height="77" fill="black">
<rect fill="white" x="-0.351562" y="-0.992737" width="411" height="77"/>
<path d="M1 73.0073V1.00726H31.4C32.1 1.00726 33.0333 1.04059 34.2 1.10726C35.4 1.14059 36.4667 1.24059 37.4 1.40726C41.7 2.07393 45.2167 3.49059 47.95 5.65726C50.7167 7.82393 52.75 10.5573 54.05 13.8573C55.35 17.1239 56 20.7739 56 24.8073C56 30.8406 54.5 36.0073 51.5 40.3073C48.5 44.5739 43.8 47.2073 37.4 48.2073L31.4 48.6073H14.6V73.0073H1ZM41.6 73.0073L27.4 43.7073L41.4 41.0073L57 73.0073H41.6ZM14.6 35.9073H30.8C31.5 35.9073 32.2667 35.8739 33.1 35.8073C33.9333 35.7406 34.7 35.6073 35.4 35.4073C37.2333 34.9073 38.65 34.0739 39.65 32.9073C40.65 31.7073 41.3333 30.3906 41.7 28.9573C42.1 27.4906 42.3 26.1073 42.3 24.8073C42.3 23.5073 42.1 22.1406 41.7 20.7073C41.3333 19.2406 40.65 17.9239 39.65 16.7573C38.65 15.5573 37.2333 14.7073 35.4 14.2073C34.7 14.0073 33.9333 13.8739 33.1 13.8073C32.2667 13.7406 31.5 13.7073 30.8 13.7073H14.6V35.9073ZM88.0922 74.5073C82.5589 74.5073 77.6755 73.3239 73.4422 70.9573C69.2422 68.5573 65.9422 65.2739 63.5422 61.1073C61.1755 56.9073 59.9922 52.1073 59.9922 46.7073C59.9922 40.8073 61.1589 35.6739 63.4922 31.3073C65.8255 26.9406 69.0422 23.5573 73.1422 21.1573C77.2422 18.7239 81.9589 17.5073 87.2922 17.5073C92.9589 17.5073 97.7755 18.8406 101.742 21.5073C105.709 24.1739 108.642 27.9239 110.542 32.7573C112.442 37.5906 113.109 43.2739 112.542 49.8073H99.0922V44.8073C99.0922 39.3073 98.2089 35.3573 96.4422 32.9573C94.7089 30.5239 91.8589 29.3073 87.8922 29.3073C83.2589 29.3073 79.8422 30.7239 77.6422 33.5573C75.4755 36.3573 74.3922 40.5073 74.3922 46.0073C74.3922 51.0406 75.4755 54.9406 77.6422 57.7073C79.8422 60.4406 83.0589 61.8073 87.2922 61.8073C89.9589 61.8073 92.2422 61.2239 94.1422 60.0573C96.0422 58.8906 97.4922 57.2073 98.4922 55.0073L112.092 58.9073C110.059 63.8406 106.842 67.6739 102.442 70.4073C98.0755 73.1406 93.2922 74.5073 88.0922 74.5073ZM70.1922 49.8073V39.7073H105.992V49.8073H70.1922ZM132.855 74.5073C128.989 74.5073 125.705 73.7739 123.005 72.3073C120.339 70.8073 118.305 68.8239 116.905 66.3573C115.539 63.8573 114.855 61.1073 114.855 58.1073C114.855 55.6073 115.239 53.3239 116.005 51.2573C116.772 49.1906 118.005 47.3739 119.705 45.8073C121.439 44.2073 123.755 42.8739 126.655 41.8073C128.655 41.0739 131.039 40.4239 133.805 39.8573C136.572 39.2906 139.705 38.7573 143.205 38.2573C146.705 37.7239 150.555 37.1406 154.755 36.5073L149.855 39.2073C149.855 36.0073 149.089 33.6573 147.555 32.1573C146.022 30.6573 143.455 29.9073 139.855 29.9073C137.855 29.9073 135.772 30.3906 133.605 31.3573C131.439 32.3239 129.922 34.0406 129.055 36.5073L116.755 32.6073C118.122 28.1406 120.689 24.5073 124.455 21.7073C128.222 18.9073 133.355 17.5073 139.855 17.5073C144.622 17.5073 148.855 18.2406 152.555 19.7073C156.255 21.1739 159.055 23.7073 160.955 27.3073C162.022 29.3073 162.655 31.3073 162.855 33.3073C163.055 35.3073 163.155 37.5406 163.155 40.0073V73.0073H151.255V61.9073L152.955 64.2073C150.322 67.8406 147.472 70.4739 144.405 72.1073C141.372 73.7073 137.522 74.5073 132.855 74.5073ZM135.755 63.8073C138.255 63.8073 140.355 63.3739 142.055 62.5073C143.789 61.6073 145.155 60.5906 146.155 59.4573C147.189 58.3239 147.889 57.3739 148.255 56.6073C148.955 55.1406 149.355 53.4406 149.455 51.5073C149.589 49.5406 149.655 47.9073 149.655 46.6073L153.655 47.6073C149.622 48.2739 146.355 48.8406 143.855 49.3073C141.355 49.7406 139.339 50.1406 137.805 50.5073C136.272 50.8739 134.922 51.2739 133.755 51.7073C132.422 52.2406 131.339 52.8239 130.505 53.4573C129.705 54.0573 129.105 54.7239 128.705 55.4573C128.339 56.1906 128.155 57.0073 128.155 57.9073C128.155 59.1406 128.455 60.2073 129.055 61.1073C129.689 61.9739 130.572 62.6406 131.705 63.1073C132.839 63.5739 134.189 63.8073 135.755 63.8073ZM194.956 74.5073C189.356 74.5073 184.556 73.2573 180.556 70.7573C176.556 68.2573 173.49 64.8573 171.356 60.5573C169.223 56.2573 168.156 51.4073 168.156 46.0073C168.156 40.5406 169.256 35.6573 171.456 31.3573C173.69 27.0573 176.823 23.6739 180.856 21.2073C184.89 18.7406 189.656 17.5073 195.156 17.5073C201.523 17.5073 206.856 19.1239 211.156 22.3573C215.49 25.5573 218.256 29.9406 219.456 35.5073L205.856 39.1073C205.056 36.3073 203.656 34.1239 201.656 32.5573C199.69 30.9906 197.456 30.2073 194.956 30.2073C192.09 30.2073 189.74 30.9073 187.906 32.3073C186.073 33.6739 184.723 35.5573 183.856 37.9573C182.99 40.3239 182.556 43.0073 182.556 46.0073C182.556 50.7073 183.59 54.5239 185.656 57.4573C187.756 60.3573 190.856 61.8073 194.956 61.8073C198.023 61.8073 200.356 61.1073 201.956 59.7073C203.556 58.3073 204.756 56.3073 205.556 53.7073L219.456 56.6073C217.923 62.3406 215.023 66.7573 210.756 69.8573C206.49 72.9573 201.223 74.5073 194.956 74.5073ZM261.257 73.0073V47.5073C261.257 46.2739 261.19 44.7073 261.057 42.8073C260.924 40.8739 260.507 38.9406 259.807 37.0073C259.107 35.0739 257.957 33.4573 256.357 32.1573C254.79 30.8573 252.557 30.2073 249.657 30.2073C248.49 30.2073 247.24 30.3906 245.907 30.7573C244.574 31.1239 243.324 31.8406 242.157 32.9073C240.99 33.9406 240.024 35.4739 239.257 37.5073C238.524 39.5406 238.157 42.2406 238.157 45.6073L230.357 41.9073C230.357 37.6406 231.224 33.6406 232.957 29.9073C234.69 26.1739 237.29 23.1573 240.757 20.8573C244.257 18.5573 248.657 17.4073 253.957 17.4073C258.19 17.4073 261.64 18.1239 264.307 19.5573C266.974 20.9906 269.04 22.8073 270.507 25.0073C272.007 27.2073 273.074 29.5073 273.707 31.9073C274.34 34.2739 274.724 36.4406 274.857 38.4073C274.99 40.3739 275.057 41.8073 275.057 42.7073V73.0073H261.257ZM224.357 73.0073V1.00726H236.457V38.0073H238.157V73.0073H224.357ZM327.351 74.5073C321.551 74.5073 316.451 73.3406 312.051 71.0073C307.651 68.6406 304.217 65.3239 301.751 61.0573C299.284 56.7906 298.051 51.7739 298.051 46.0073V1.10726L311.851 1.00726V45.9073C311.851 48.2739 312.251 50.4239 313.051 52.3573C313.851 54.2906 314.951 55.9573 316.351 57.3573C317.784 58.7573 319.434 59.8406 321.301 60.6073C323.201 61.3406 325.217 61.7073 327.351 61.7073C329.551 61.7073 331.584 61.3239 333.451 60.5573C335.351 59.7906 337.001 58.7073 338.401 57.3073C339.801 55.9073 340.884 54.2406 341.651 52.3073C342.451 50.3739 342.851 48.2406 342.851 45.9073V1.00726H356.651V46.0073C356.651 51.7739 355.417 56.7906 352.951 61.0573C350.484 65.3239 347.051 68.6406 342.651 71.0073C338.251 73.3406 333.151 74.5073 327.351 74.5073ZM386.709 74.5073C379.909 74.5073 374.409 72.9739 370.209 69.9073C366.043 66.8073 363.509 62.4406 362.609 56.8073L376.509 54.7073C377.076 57.2406 378.326 59.2239 380.259 60.6573C382.226 62.0906 384.709 62.8073 387.709 62.8073C390.176 62.8073 392.076 62.3406 393.409 61.4073C394.743 60.4406 395.409 59.1073 395.409 57.4073C395.409 56.3406 395.143 55.4906 394.609 54.8573C394.076 54.1906 392.876 53.5406 391.009 52.9073C389.176 52.2739 386.309 51.4406 382.409 50.4073C378.009 49.2739 374.493 48.0073 371.859 46.6073C369.226 45.2073 367.326 43.5406 366.159 41.6073C364.993 39.6406 364.409 37.2739 364.409 34.5073C364.409 31.0406 365.293 28.0406 367.059 25.5073C368.826 22.9406 371.309 20.9739 374.509 19.6073C377.743 18.2073 381.543 17.5073 385.909 17.5073C390.143 17.5073 393.893 18.1573 397.159 19.4573C400.426 20.7573 403.059 22.6073 405.059 25.0073C407.093 27.4073 408.343 30.2406 408.809 33.5073L394.909 36.0073C394.676 34.0073 393.809 32.4239 392.309 31.2573C390.809 30.0906 388.776 29.4073 386.209 29.2073C383.709 29.0406 381.693 29.3739 380.159 30.2073C378.659 31.0406 377.909 32.2406 377.909 33.8073C377.909 34.7406 378.226 35.5239 378.859 36.1573C379.526 36.7906 380.876 37.4406 382.909 38.1073C384.976 38.7739 388.109 39.6406 392.309 40.7073C396.409 41.7739 399.693 43.0239 402.159 44.4573C404.659 45.8573 406.476 47.5573 407.609 49.5573C408.743 51.5239 409.309 53.9073 409.309 56.7073C409.309 62.2406 407.309 66.5906 403.309 69.7573C399.309 72.9239 393.776 74.5073 386.709 74.5073Z"/>
</mask>
<path d="M1 73.0073H0V74.0073H1V73.0073ZM1 1.00726V0.00726318H0V1.00726H1ZM34.2 1.10726L34.143 2.10563L34.1576 2.10647L34.1722 2.10687L34.2 1.10726ZM37.4 1.40726L37.2242 2.39169L37.2355 2.3937L37.2468 2.39545L37.4 1.40726ZM47.95 5.65726L47.3288 6.44093L47.3334 6.44456L47.95 5.65726ZM54.05 13.8573L53.1196 14.2238L53.1209 14.227L54.05 13.8573ZM51.5 40.3073L52.318 40.8824L52.3201 40.8794L51.5 40.3073ZM37.4 48.2073L37.4665 49.205L37.5107 49.2021L37.5544 49.1953L37.4 48.2073ZM31.4 48.6073V49.6073H31.4333L31.4665 49.605L31.4 48.6073ZM14.6 48.6073V47.6073H13.6V48.6073H14.6ZM14.6 73.0073V74.0073H15.6V73.0073H14.6ZM41.6 73.0073L40.7001 73.4434L40.9734 74.0073H41.6V73.0073ZM27.4 43.7073L27.2106 42.7254L25.9324 42.9719L26.5001 44.1434L27.4 43.7073ZM41.4 41.0073L42.2989 40.5691L41.9631 39.8802L41.2106 40.0254L41.4 41.0073ZM57 73.0073V74.0073H58.6L57.8989 72.5691L57 73.0073ZM14.6 35.9073H13.6V36.9073H14.6V35.9073ZM33.1 35.8073L33.1797 36.8041V36.8041L33.1 35.8073ZM35.4 35.4073L35.1369 34.4424L35.1253 34.4457L35.4 35.4073ZM39.65 32.9073L40.4093 33.5581L40.4182 33.5474L39.65 32.9073ZM41.7 28.9573L40.7352 28.6941L40.7332 28.7018L40.7312 28.7094L41.7 28.9573ZM41.7 20.7073L40.7299 20.9498L40.7332 20.963L40.7368 20.9761L41.7 20.7073ZM39.65 16.7573L38.8817 17.3975L38.8907 17.4081L39.65 16.7573ZM35.4 14.2073L35.1253 15.1689L35.1369 15.172L35.4 14.2073ZM33.1 13.8073L33.0203 14.8041H33.0203L33.1 13.8073ZM14.6 13.7073V12.7073H13.6V13.7073H14.6ZM1 73.0073H2V1.00726H1H0V73.0073H1ZM1 1.00726V2.00726H31.4V1.00726V0.00726318H1V1.00726ZM31.4 1.00726V2.00726C32.0726 2.00726 32.9846 2.03944 34.143 2.10563L34.2 1.10726L34.257 0.108887C33.0821 0.041748 32.1274 0.00726318 31.4 0.00726318V1.00726ZM34.2 1.10726L34.1722 2.10687C35.335 2.13918 36.3506 2.23569 37.2242 2.39169L37.4 1.40726L37.5758 0.422836C36.5827 0.245499 35.465 0.142014 34.2278 0.107643L34.2 1.10726ZM37.4 1.40726L37.2468 2.39545C41.4175 3.04208 44.7608 4.40533 47.3288 6.44092L47.95 5.65726L48.5712 4.8736C45.6725 2.57586 41.9825 1.10577 37.5532 0.419067L37.4 1.40726ZM47.95 5.65726L47.3334 6.44456C49.9585 8.50035 51.8842 11.0879 53.1196 14.2238L54.05 13.8573L54.9804 13.4907C53.6158 10.0267 51.4748 7.1475 48.5666 4.86995L47.95 5.65726ZM54.05 13.8573L53.1209 14.227C54.3677 17.36 55 20.8821 55 24.8073H56H57C57 20.6657 56.3323 16.8878 54.9791 13.4875L54.05 13.8573ZM56 24.8073H55C55 30.6678 53.5458 35.6273 50.6799 39.7351L51.5 40.3073L52.3201 40.8794C55.4542 36.3873 57 31.0134 57 24.8073H56ZM51.5 40.3073L50.682 39.7321C47.8741 43.7255 43.4466 46.2504 37.2456 47.2193L37.4 48.2073L37.5544 49.1953C44.1534 48.1642 49.1259 45.4224 52.318 40.8824L51.5 40.3073ZM37.4 48.2073L37.3335 47.2095L31.3335 47.6095L31.4 48.6073L31.4665 49.605L37.4665 49.205L37.4 48.2073ZM31.4 48.6073V47.6073H14.6V48.6073V49.6073H31.4V48.6073ZM14.6 48.6073H13.6V73.0073H14.6H15.6V48.6073H14.6ZM14.6 73.0073V72.0073H1V73.0073V74.0073H14.6V73.0073ZM41.6 73.0073L42.4999 72.5711L28.2999 43.2711L27.4 43.7073L26.5001 44.1434L40.7001 73.4434L41.6 73.0073ZM27.4 43.7073L27.5894 44.6892L41.5894 41.9892L41.4 41.0073L41.2106 40.0254L27.2106 42.7254L27.4 43.7073ZM41.4 41.0073L40.5011 41.4455L56.1011 73.4455L57 73.0073L57.8989 72.5691L42.2989 40.5691L41.4 41.0073ZM57 73.0073V72.0073H41.6V73.0073V74.0073H57V73.0073ZM14.6 35.9073V36.9073H30.8V35.9073V34.9073H14.6V35.9073ZM30.8 35.9073V36.9073C31.5311 36.9073 32.3248 36.8725 33.1797 36.8041L33.1 35.8073L33.0203 34.8104C32.2085 34.8754 31.4689 34.9073 30.8 34.9073V35.9073ZM33.1 35.8073L33.1797 36.8041C34.0696 36.7329 34.9025 36.5894 35.6747 36.3688L35.4 35.4073L35.1253 34.4457C34.4975 34.6251 33.7971 34.7483 33.0203 34.8104L33.1 35.8073ZM35.4 35.4073L35.6631 36.372C37.6435 35.8319 39.2511 34.9092 40.4093 33.5581L39.65 32.9073L38.8907 32.2565C38.0489 33.2386 36.8232 33.9826 35.1369 34.4425L35.4 35.4073ZM39.65 32.9073L40.4182 33.5474C41.508 32.2397 42.2632 30.7905 42.6688 29.2051L41.7 28.9573L40.7312 28.7094C40.4034 29.9907 39.792 31.1748 38.8818 32.2671L39.65 32.9073ZM41.7 28.9573L42.6648 29.2204C43.0843 27.6821 43.3 26.2097 43.3 24.8073H42.3H41.3C41.3 26.0049 41.1157 27.2991 40.7352 28.6941L41.7 28.9573ZM42.3 24.8073H43.3C43.3 23.4044 43.0842 21.9469 42.6632 20.4385L41.7 20.7073L40.7368 20.9761C41.1158 22.3343 41.3 23.6101 41.3 24.8073H42.3ZM41.7 20.7073L42.6701 20.4647C42.2652 18.8449 41.5086 17.389 40.4093 16.1065L39.65 16.7573L38.8907 17.4081C39.7914 18.4589 40.4015 19.6363 40.7299 20.9498L41.7 20.7073ZM39.65 16.7573L40.4182 16.1171C39.2609 14.7283 37.6506 13.7845 35.6631 13.2425L35.4 14.2073L35.1369 15.172C36.816 15.63 38.0391 16.3862 38.8818 17.3974L39.65 16.7573ZM35.4 14.2073L35.6747 13.2457C34.9025 13.0251 34.0696 12.8816 33.1797 12.8104L33.1 13.8073L33.0203 14.8041C33.7971 14.8662 34.4975 14.9894 35.1253 15.1688L35.4 14.2073ZM33.1 13.8073L33.1798 12.8104C32.3248 12.742 31.5311 12.7073 30.8 12.7073V13.7073V14.7073C31.4689 14.7073 32.2085 14.7391 33.0203 14.8041L33.1 13.8073ZM30.8 13.7073V12.7073H14.6V13.7073V14.7073H30.8V13.7073ZM14.6 13.7073H13.6V35.9073H14.6H15.6V13.7073H14.6ZM73.4422 70.9573L72.946 71.8255L72.9542 71.8301L73.4422 70.9573ZM63.5422 61.1073L62.6709 61.5982L62.6757 61.6064L63.5422 61.1073ZM63.4922 31.3073L62.6102 30.836V30.836L63.4922 31.3073ZM73.1422 21.1573L73.6474 22.0203L73.6526 22.0172L73.1422 21.1573ZM101.742 21.5073L102.3 20.6774V20.6774L101.742 21.5073ZM110.542 32.7573L111.473 32.3914V32.3914L110.542 32.7573ZM112.542 49.8073V50.8073H113.459L113.538 49.8937L112.542 49.8073ZM99.0922 49.8073H98.0922V50.8073H99.0922V49.8073ZM96.4422 32.9573L95.6277 33.5374L95.6322 33.5438L95.6369 33.5501L96.4422 32.9573ZM77.6422 33.5573L76.8523 32.944L76.8513 32.9453L77.6422 33.5573ZM77.6422 57.7073L76.8548 58.3239L76.8632 58.3343L77.6422 57.7073ZM94.1422 60.0573L93.6189 59.2051V59.2051L94.1422 60.0573ZM98.4922 55.0073L98.7678 54.046L97.9387 53.8082L97.5818 54.5935L98.4922 55.0073ZM112.092 58.9073L113.017 59.2883L113.443 58.2543L112.368 57.946L112.092 58.9073ZM102.442 70.4073L101.915 69.5578L101.912 69.5596L102.442 70.4073ZM70.1922 49.8073H69.1922V50.8073H70.1922V49.8073ZM70.1922 39.7073V38.7073H69.1922V39.7073H70.1922ZM105.992 39.7073H106.992V38.7073H105.992V39.7073ZM105.992 49.8073V50.8073H106.992V49.8073H105.992ZM88.0922 74.5073V73.5073C82.7053 73.5073 77.9944 72.3566 73.9302 70.0844L73.4422 70.9573L72.9542 71.8301C77.3566 74.2913 82.4124 75.5073 88.0922 75.5073V74.5073ZM73.4422 70.9573L73.9383 70.089C69.8914 67.7765 66.7196 64.6201 64.4087 60.6081L63.5422 61.1073L62.6757 61.6064C65.1648 65.9277 68.593 69.3381 72.946 71.8255L73.4422 70.9573ZM63.5422 61.1073L64.4134 60.6163C62.1409 56.5835 60.9922 51.9563 60.9922 46.7073H59.9922H58.9922C58.9922 52.2582 60.2101 57.231 62.671 61.5982L63.5422 61.1073ZM59.9922 46.7073H60.9922C60.9922 40.9403 62.1319 35.9748 64.3742 31.7785L63.4922 31.3073L62.6102 30.836C60.1858 35.373 58.9922 40.6743 58.9922 46.7073H59.9922ZM63.4922 31.3073L64.3742 31.7785C66.6243 27.5675 69.7136 24.323 73.6474 22.0203L73.1422 21.1573L72.637 20.2942C68.3708 22.7916 65.0267 26.3136 62.6102 30.836L63.4922 31.3073ZM73.1422 21.1573L73.6526 22.0172C77.5804 19.6861 82.1166 18.5073 87.2922 18.5073V17.5073V16.5073C81.8011 16.5073 76.904 17.7618 72.6318 20.2973L73.1422 21.1573ZM87.2922 17.5073V18.5073C92.7977 18.5073 97.4112 19.8006 101.184 22.3372L101.742 21.5073L102.3 20.6774C98.1398 17.8805 93.12 16.5073 87.2922 16.5073V17.5073ZM101.742 21.5073L101.184 22.3372C104.968 24.8807 107.779 28.4616 109.612 33.1231L110.542 32.7573L111.473 32.3914C109.505 27.3863 106.45 23.4672 102.3 20.6774L101.742 21.5073ZM110.542 32.7573L109.612 33.1231C111.442 37.7801 112.103 43.302 111.546 49.7209L112.542 49.8073L113.538 49.8937C114.115 43.2459 113.442 37.4011 111.473 32.3914L110.542 32.7573ZM112.542 49.8073V48.8073H99.0922V49.8073V50.8073H112.542V49.8073ZM99.0922 49.8073H100.092V44.8073H99.0922H98.0922V49.8073H99.0922ZM99.0922 44.8073H100.092C100.092 39.2504 99.2095 35.0297 97.2475 32.3644L96.4422 32.9573L95.6369 33.5501C97.2083 35.6848 98.0922 39.3641 98.0922 44.8073H99.0922ZM96.4422 32.9573L97.2567 32.3771C95.2771 29.5981 92.0661 28.3073 87.8922 28.3073V29.3073V30.3073C91.6516 30.3073 94.1406 31.4497 95.6277 33.5374L96.4422 32.9573ZM87.8922 29.3073V28.3073C83.0482 28.3073 79.2948 29.7984 76.8523 32.944L77.6422 33.5573L78.432 34.1706C80.3896 31.6495 83.4695 30.3073 87.8922 30.3073V29.3073ZM77.6422 33.5573L76.8513 32.9453C74.4923 35.9939 73.3922 40.4011 73.3922 46.0073H74.3922H75.3922C75.3922 40.6134 76.4588 36.7206 78.4331 34.1693L77.6422 33.5573ZM74.3922 46.0073H73.3922C73.3922 51.1701 74.5019 55.3193 76.8549 58.3238L77.6422 57.7073L78.4295 57.0907C76.4491 54.5619 75.3922 50.9111 75.3922 46.0073H74.3922ZM77.6422 57.7073L76.8632 58.3343C79.2926 61.3526 82.8254 62.8073 87.2922 62.8073V61.8073V60.8073C83.2923 60.8073 80.3918 59.5286 78.4212 57.0803L77.6422 57.7073ZM87.2922 61.8073V62.8073C90.1071 62.8073 92.5796 62.1902 94.6655 60.9094L94.1422 60.0573L93.6189 59.2051C91.9048 60.2576 89.8106 60.8073 87.2922 60.8073V61.8073ZM94.1422 60.0573L94.6655 60.9094C96.7496 59.6297 98.3273 57.7866 99.4026 55.4211L98.4922 55.0073L97.5818 54.5935C96.657 56.628 95.3348 58.1515 93.6189 59.2051L94.1422 60.0573ZM98.4922 55.0073L98.2165 55.9685L111.817 59.8685L112.092 58.9073L112.368 57.946L98.7678 54.046L98.4922 55.0073ZM112.092 58.9073L111.168 58.5262C109.212 63.2719 106.131 66.9387 101.915 69.5578L102.442 70.4073L102.97 71.2567C107.554 68.4092 110.906 64.4093 113.017 59.2883L112.092 58.9073ZM102.442 70.4073L101.912 69.5596C97.7056 72.1924 93.1064 73.5073 88.0922 73.5073V74.5073V75.5073C93.478 75.5073 98.4455 74.0888 102.973 71.2549L102.442 70.4073ZM70.1922 49.8073H71.1922V39.7073H70.1922H69.1922V49.8073H70.1922ZM70.1922 39.7073V40.7073H105.992V39.7073V38.7073H70.1922V39.7073ZM105.992 39.7073H104.992V49.8073H105.992H106.992V39.7073H105.992ZM105.992 49.8073V48.8073H70.1922V49.8073V50.8073H105.992V49.8073ZM123.005 72.3073L122.515 73.1788L122.522 73.1825L122.528 73.186L123.005 72.3073ZM116.905 66.3573L116.028 66.8369L116.032 66.8439L116.036 66.8509L116.905 66.3573ZM116.005 51.2573L115.068 50.9095V50.9095L116.005 51.2573ZM119.705 45.8073L120.383 46.5426L120.384 46.5421L119.705 45.8073ZM126.655 41.8073L126.311 40.8684L126.31 40.8687L126.655 41.8073ZM133.805 39.8573L133.605 38.8776V38.8776L133.805 39.8573ZM143.205 38.2573L143.347 39.2473L143.356 39.2458L143.205 38.2573ZM154.755 36.5073L155.238 37.3831L154.606 35.5184L154.755 36.5073ZM149.855 39.2073H148.855V40.9L150.338 40.0831L149.855 39.2073ZM133.605 31.3573L133.198 30.444V30.444L133.605 31.3573ZM129.055 36.5073L128.753 37.4605L129.678 37.7536L129.999 36.8387L129.055 36.5073ZM116.755 32.6073L115.799 32.3147L115.51 33.2613L116.453 33.5605L116.755 32.6073ZM124.455 21.7073L123.859 20.9047L124.455 21.7073ZM152.555 19.7073L152.924 18.7776V18.7776L152.555 19.7073ZM160.955 27.3073L160.071 27.774L160.073 27.7778L160.955 27.3073ZM162.855 33.3073L163.851 33.2078V33.2078L162.855 33.3073ZM163.155 73.0073V74.0073H164.155V73.0073H163.155ZM151.255 73.0073H150.255V74.0073H151.255V73.0073ZM151.255 61.9073L152.06 61.3129L150.255 58.8719V61.9073H151.255ZM152.955 64.2073L153.765 64.7941L154.195 64.2015L153.76 63.6129L152.955 64.2073ZM144.405 72.1073L144.872 72.9918L144.876 72.9899L144.405 72.1073ZM142.055 62.5073L142.51 63.3982L142.516 63.3948L142.055 62.5073ZM146.155 59.4573L145.417 58.7835L145.411 58.7895L145.406 58.7956L146.155 59.4573ZM148.255 56.6073L149.158 57.0387L149.158 57.038L148.255 56.6073ZM149.455 51.5073L148.458 51.4396L148.457 51.4476L148.457 51.4556L149.455 51.5073ZM149.655 46.6073L149.898 45.6371L148.655 45.3265V46.6073H149.655ZM153.655 47.6073L153.819 48.5939L153.898 46.6371L153.655 47.6073ZM143.855 49.3073L144.026 50.2926L144.039 50.2903L143.855 49.3073ZM133.755 51.7073L133.407 50.7698L133.396 50.7742L133.384 50.7788L133.755 51.7073ZM130.505 53.4573L131.105 54.2573L131.111 54.2534L130.505 53.4573ZM128.705 55.4573L127.828 54.9784L127.819 54.9941L127.811 55.01L128.705 55.4573ZM129.055 61.1073L128.223 61.662L128.235 61.6799L128.248 61.6973L129.055 61.1073ZM132.855 74.5073V73.5073C129.113 73.5073 126.003 72.7976 123.483 71.4285L123.005 72.3073L122.528 73.186C125.408 74.7502 128.864 75.5073 132.855 75.5073V74.5073ZM123.005 72.3073L123.496 71.4357C120.975 70.0176 119.078 68.1598 117.775 65.8637L116.905 66.3573L116.036 66.8509C117.533 69.4881 119.703 71.597 122.515 73.1788L123.005 72.3073ZM116.905 66.3573L117.783 65.8776C116.501 63.5325 115.855 60.9488 115.855 58.1073H114.855H113.855C113.855 61.2657 114.577 64.182 116.028 66.8369L116.905 66.3573ZM114.855 58.1073H115.855C115.855 55.7102 116.223 53.5465 116.943 51.6051L116.005 51.2573L115.068 50.9095C114.255 53.1013 113.855 55.5043 113.855 58.1073H114.855ZM116.005 51.2573L116.943 51.6051C117.652 49.6935 118.793 48.0078 120.383 46.5426L119.705 45.8073L119.028 45.0719C117.218 46.7401 115.892 48.6877 115.068 50.9095L116.005 51.2573ZM119.705 45.8073L120.384 46.5421C121.996 45.0542 124.188 43.7805 127.001 42.7458L126.655 41.8073L126.31 40.8687C123.323 41.9674 120.882 43.3604 119.027 45.0725L119.705 45.8073ZM126.655 41.8073L127 42.7461C128.941 42.0344 131.274 41.3966 134.006 40.8369L133.805 39.8573L133.605 38.8776C130.804 39.4513 128.37 40.1134 126.311 40.8684L126.655 41.8073ZM133.805 39.8573L134.006 40.8369C136.749 40.2751 139.862 39.745 143.347 39.2472L143.205 38.2573L143.064 37.2673C139.549 37.7695 136.395 38.3061 133.605 38.8776L133.805 39.8573ZM143.205 38.2573L143.356 39.2458C146.856 38.7126 150.705 38.1293 154.905 37.4961L154.755 36.5073L154.606 35.5184C150.406 36.1518 146.555 36.7352 143.055 37.2687L143.205 38.2573ZM154.755 36.5073L154.273 35.6314L149.373 38.3314L149.855 39.2073L150.338 40.0831L155.238 37.3831L154.755 36.5073ZM149.855 39.2073H150.855C150.855 35.8697 150.058 33.206 148.255 31.4424L147.555 32.1573L146.856 32.8721C148.12 34.1085 148.855 36.1448 148.855 39.2073H149.855ZM147.555 32.1573L148.255 31.4424C146.442 29.6692 143.55 28.9073 139.855 28.9073V29.9073V30.9073C143.361 30.9073 145.602 31.6453 146.856 32.8721L147.555 32.1573ZM139.855 29.9073V28.9073C137.691 28.9073 135.469 29.4307 133.198 30.444L133.605 31.3573L134.013 32.2705C136.075 31.3505 138.02 30.9073 139.855 30.9073V29.9073ZM133.605 31.3573L133.198 30.444C130.753 31.5348 129.06 33.4791 128.112 36.1758L129.055 36.5073L129.999 36.8387C130.785 34.6021 132.124 33.1131 134.013 32.2705L133.605 31.3573ZM129.055 36.5073L129.358 35.554L117.058 31.654L116.755 32.6073L116.453 33.5605L128.753 37.4605L129.055 36.5073ZM116.755 32.6073L117.712 32.8998C119.016 28.6382 121.456 25.1832 125.052 22.5098L124.455 21.7073L123.859 20.9047C119.922 23.8313 117.229 27.643 115.799 32.3147L116.755 32.6073ZM124.455 21.7073L125.052 22.5098C128.591 19.8791 133.489 18.5073 139.855 18.5073V17.5073V16.5073C133.222 16.5073 127.853 17.9354 123.859 20.9047L124.455 21.7073ZM139.855 17.5073V18.5073C144.52 18.5073 148.625 19.2249 152.187 20.6369L152.555 19.7073L152.924 18.7776C149.086 17.2563 144.724 16.5073 139.855 16.5073V17.5073ZM152.555 19.7073L152.187 20.6369C155.66 22.0135 158.28 24.3796 160.071 27.774L160.955 27.3073L161.84 26.8405C159.831 23.0349 156.851 20.3343 152.924 18.7776L152.555 19.7073ZM160.955 27.3073L160.073 27.7778C161.086 29.6773 161.675 31.5522 161.86 33.4068L162.855 33.3073L163.851 33.2078C163.636 31.0623 162.958 28.9372 161.838 26.8367L160.955 27.3073ZM162.855 33.3073L161.86 33.4068C162.056 35.3673 162.155 37.5667 162.155 40.0073H163.155H164.155C164.155 37.5145 164.054 35.2472 163.851 33.2078L162.855 33.3073ZM163.155 40.0073H162.155V73.0073H163.155H164.155V40.0073H163.155ZM163.155 73.0073V72.0073H151.255V73.0073V74.0073H163.155V73.0073ZM151.255 73.0073H152.255V61.9073H151.255H150.255V73.0073H151.255ZM151.255 61.9073L150.451 62.5017L152.151 64.8017L152.955 64.2073L153.76 63.6129L152.06 61.3129L151.255 61.9073ZM152.955 64.2073L152.146 63.6204C149.577 67.1653 146.835 69.6805 143.935 71.2246L144.405 72.1073L144.876 72.9899C148.11 71.2674 151.068 68.5159 153.765 64.7941L152.955 64.2073ZM144.405 72.1073L143.939 71.2228C141.092 72.7245 137.415 73.5073 132.855 73.5073V74.5073V75.5073C137.629 75.5073 141.652 74.69 144.872 72.9918L144.405 72.1073ZM135.755 63.8073V64.8073C138.366 64.8073 140.632 64.3553 142.51 63.3982L142.055 62.5073L141.601 61.6164C140.079 62.3926 138.145 62.8073 135.755 62.8073V63.8073ZM142.055 62.5073L142.516 63.3948C144.329 62.4537 145.804 61.3673 146.905 60.1189L146.155 59.4573L145.406 58.7956C144.507 59.8139 143.249 60.7608 141.595 61.6198L142.055 62.5073ZM146.155 59.4573L146.894 60.131C147.95 58.9735 148.728 57.9378 149.158 57.0387L148.255 56.6073L147.353 56.1758C147.05 56.8101 146.428 57.6743 145.417 58.7835L146.155 59.4573ZM148.255 56.6073L149.158 57.038C149.924 55.4321 150.349 53.5991 150.454 51.5589L149.455 51.5073L148.457 51.4556C148.362 53.2821 147.987 54.8491 147.353 56.1765L148.255 56.6073ZM149.455 51.5073L150.453 51.5749C150.587 49.5959 150.655 47.9381 150.655 46.6073H149.655H148.655C148.655 47.8764 148.59 49.4853 148.458 51.4396L149.455 51.5073ZM149.655 46.6073L149.413 47.5774L153.413 48.5774L153.655 47.6073L153.898 46.6371L149.898 45.6371L149.655 46.6073ZM153.655 47.6073L153.492 46.6207C149.456 47.2879 146.182 47.8558 143.672 48.3242L143.855 49.3073L144.039 50.2903C146.529 49.8254 149.788 49.26 153.819 48.5939L153.655 47.6073ZM143.855 49.3073L143.685 48.322C141.175 48.757 139.135 49.1611 137.573 49.5347L137.805 50.5073L138.038 51.4798C139.542 51.1201 141.536 50.7242 144.026 50.2926L143.855 49.3073ZM137.805 50.5073L137.573 49.5347C136.01 49.9084 134.62 50.3194 133.407 50.7698L133.755 51.7073L134.104 52.6447C135.224 52.2285 136.534 51.8395 138.038 51.4798L137.805 50.5073ZM133.755 51.7073L133.384 50.7788C131.996 51.3341 130.826 51.9574 129.9 52.6611L130.505 53.4573L131.111 54.2534C131.851 53.6904 132.848 53.1471 134.127 52.6357L133.755 51.7073ZM130.505 53.4573L129.905 52.6573C129.013 53.3265 128.308 54.0971 127.828 54.9784L128.705 55.4573L129.583 55.9361C129.903 55.3508 130.398 54.788 131.105 54.2573L130.505 53.4573ZM128.705 55.4573L127.811 55.01C127.368 55.8954 127.155 56.8674 127.155 57.9073H128.155H129.155C129.155 57.1471 129.309 56.4858 129.6 55.9045L128.705 55.4573ZM128.155 57.9073H127.155C127.155 59.3095 127.499 60.5755 128.223 61.662L129.055 61.1073L129.888 60.5526C129.412 59.8391 129.155 58.9717 129.155 57.9073H128.155ZM129.055 61.1073L128.248 61.6973C129.005 62.7328 130.046 63.5053 131.325 64.0319L131.705 63.1073L132.086 62.1826C131.099 61.7759 130.373 61.215 129.863 60.5172L129.055 61.1073ZM131.705 63.1073L131.325 64.0319C132.607 64.5601 134.093 64.8073 135.755 64.8073V63.8073V62.8073C134.285 62.8073 133.07 62.5878 132.086 62.1826L131.705 63.1073ZM171.356 60.5573L172.252 60.1128V60.1128L171.356 60.5573ZM171.456 31.3573L170.569 30.8963L170.566 30.9018L171.456 31.3573ZM180.856 21.2073L181.378 22.0604V22.0604L180.856 21.2073ZM211.156 22.3573L210.555 23.1565L210.562 23.1617L211.156 22.3573ZM219.456 35.5073L219.712 36.474L220.635 36.2297L220.434 35.2965L219.456 35.5073ZM205.856 39.1073L204.895 39.382L205.164 40.3249L206.112 40.074L205.856 39.1073ZM201.656 32.5573L201.033 33.3394L201.04 33.3445L201.656 32.5573ZM187.906 32.3073L188.504 33.1091L188.513 33.102L187.906 32.3073ZM183.856 37.9573L184.795 38.3011L184.797 38.2969L183.856 37.9573ZM185.656 57.4573L184.839 58.0333L184.846 58.0438L185.656 57.4573ZM201.956 59.7073L202.615 60.4598V60.4598L201.956 59.7073ZM205.556 53.7073L205.76 52.7283L204.868 52.5422L204.6 53.4132L205.556 53.7073ZM219.456 56.6073L220.422 56.8656L220.695 55.8443L219.66 55.6283L219.456 56.6073ZM194.956 74.5073V73.5073C189.508 73.5073 184.9 72.2927 181.086 69.9093L180.556 70.7573L180.026 71.6053C184.213 74.2219 189.204 75.5073 194.956 75.5073V74.5073ZM180.556 70.7573L181.086 69.9093C177.246 67.5092 174.305 64.2501 172.252 60.1128L171.356 60.5573L170.46 61.0017C172.674 65.4644 175.866 69.0054 180.026 71.6053L180.556 70.7573ZM171.356 60.5573L172.252 60.1128C170.195 55.9674 169.156 51.2725 169.156 46.0073H168.156H167.156C167.156 51.542 168.25 56.5471 170.46 61.0017L171.356 60.5573ZM168.156 46.0073H169.156C169.156 40.6779 170.228 35.9541 172.346 31.8127L171.456 31.3573L170.566 30.9018C168.285 35.3604 167.156 40.4033 167.156 46.0073H168.156ZM171.456 31.3573L172.344 31.8182C174.495 27.6755 177.504 24.4296 181.378 22.0604L180.856 21.2073L180.335 20.3542C176.142 22.9183 172.884 26.439 170.569 30.8963L171.456 31.3573ZM180.856 21.2073L181.378 22.0604C185.23 19.7045 189.81 18.5073 195.156 18.5073V17.5073V16.5073C189.503 16.5073 184.549 17.7766 180.335 20.3542L180.856 21.2073ZM195.156 17.5073V18.5073C201.347 18.5073 206.459 20.0762 210.555 23.1565L211.156 22.3573L211.757 21.558C207.254 18.1717 201.699 16.5073 195.156 16.5073V17.5073ZM211.156 22.3573L210.562 23.1617C214.688 26.2083 217.327 30.3745 218.479 35.718L219.456 35.5073L220.434 35.2965C219.186 29.5067 216.291 24.9062 211.75 21.5528L211.156 22.3573ZM219.456 35.5073L219.2 34.5406L205.6 38.1406L205.856 39.1073L206.112 40.074L219.712 36.474L219.456 35.5073ZM205.856 39.1073L206.818 38.8325C205.969 35.8604 204.463 33.4853 202.273 31.77L201.656 32.5573L201.04 33.3445C202.85 34.7625 204.144 36.7541 204.895 39.382L205.856 39.1073ZM201.656 32.5573L202.279 31.7751C200.137 30.0683 197.684 29.2073 194.956 29.2073V30.2073V31.2073C197.228 31.2073 199.242 31.9129 201.033 33.3394L201.656 32.5573ZM194.956 30.2073V29.2073C191.925 29.2073 189.346 29.9498 187.299 31.5125L187.906 32.3073L188.513 33.102C190.133 31.8647 192.255 31.2073 194.956 31.2073V30.2073ZM187.906 32.3073L187.309 31.5055C185.3 33.0026 183.841 35.0555 182.916 37.6176L183.856 37.9573L184.797 38.2969C185.605 36.0591 186.846 34.3452 188.504 33.109L187.906 32.3073ZM183.856 37.9573L182.917 37.6134C182.003 40.109 181.556 42.9117 181.556 46.0073H182.556H183.556C183.556 43.1028 183.976 40.5389 184.795 38.3011L183.856 37.9573ZM182.556 46.0073H181.556C181.556 50.8501 182.621 54.886 184.839 58.0332L185.656 57.4573L186.474 56.8813C184.558 54.1618 183.556 50.5644 183.556 46.0073H182.556ZM185.656 57.4573L184.846 58.0438C187.164 61.2439 190.589 62.8073 194.956 62.8073V61.8073V60.8073C191.124 60.8073 188.349 59.4706 186.466 56.8708L185.656 57.4573ZM194.956 61.8073V62.8073C198.16 62.8073 200.766 62.0773 202.615 60.4598L201.956 59.7073L201.298 58.9547C199.946 60.1373 197.886 60.8073 194.956 60.8073V61.8073ZM201.956 59.7073L202.615 60.4598C204.389 58.9077 205.672 56.7299 206.512 54.0014L205.556 53.7073L204.6 53.4132C203.84 55.8846 202.724 57.7068 201.298 58.9547L201.956 59.7073ZM205.556 53.7073L205.352 54.6862L219.252 57.5862L219.456 56.6073L219.66 55.6283L205.76 52.7283L205.556 53.7073ZM219.456 56.6073L218.49 56.3489C217.008 61.8901 214.226 66.0999 210.168 69.0483L210.756 69.8573L211.344 70.6663C215.819 67.4146 218.838 62.7911 220.422 56.8656L219.456 56.6073ZM210.756 69.8573L210.168 69.0483C206.103 72.0021 201.053 73.5073 194.956 73.5073V74.5073V75.5073C201.393 75.5073 206.876 73.9124 211.344 70.6663L210.756 69.8573ZM261.257 73.0073H260.257V74.0073H261.257V73.0073ZM261.057 42.8073L260.059 42.8761L260.059 42.8773L261.057 42.8073ZM259.807 37.0073L260.747 36.6668V36.6668L259.807 37.0073ZM256.357 32.1573L255.718 32.9269L255.726 32.9334L256.357 32.1573ZM245.907 30.7573L246.172 31.7215V31.7215L245.907 30.7573ZM242.157 32.9073L242.82 33.6559L242.826 33.6506L242.832 33.6453L242.157 32.9073ZM239.257 37.5073L238.321 37.1545L238.319 37.1612L238.316 37.168L239.257 37.5073ZM238.157 45.6073L237.728 46.5108L239.157 47.1884V45.6073H238.157ZM230.357 41.9073H229.357V42.5397L229.928 42.8108L230.357 41.9073ZM232.957 29.9073L232.05 29.4861V29.4861L232.957 29.9073ZM240.757 20.8573L240.208 20.0215L240.204 20.024L240.757 20.8573ZM264.307 19.5573L263.834 20.4381V20.4381L264.307 19.5573ZM270.507 25.0073L269.675 25.562L269.681 25.5706L270.507 25.0073ZM273.707 31.9073L272.74 32.1624L272.741 32.1658L273.707 31.9073ZM274.857 38.4073L273.859 38.4749V38.4749L274.857 38.4073ZM275.057 73.0073V74.0073H276.057V73.0073H275.057ZM224.357 73.0073H223.357V74.0073H224.357V73.0073ZM224.357 1.00726V0.00726318H223.357V1.00726H224.357ZM236.457 1.00726H237.457V0.00726318H236.457V1.00726ZM236.457 38.0073H235.457V39.0073H236.457V38.0073ZM238.157 38.0073H239.157V37.0073H238.157V38.0073ZM238.157 73.0073V74.0073H239.157V73.0073H238.157ZM261.257 73.0073H262.257V47.5073H261.257H260.257V73.0073H261.257ZM261.257 47.5073H262.257C262.257 46.2416 262.189 44.6495 262.055 42.7373L261.057 42.8073L260.059 42.8773C260.192 44.765 260.257 46.3062 260.257 47.5073H261.257ZM261.057 42.8073L262.055 42.7385C261.915 40.7069 261.477 38.6823 260.747 36.6668L259.807 37.0073L258.867 37.3477C259.537 39.1989 259.933 41.041 260.059 42.8761L261.057 42.8073ZM259.807 37.0073L260.747 36.6668C259.985 34.5624 258.728 32.7953 256.988 31.3811L256.357 32.1573L255.726 32.9334C257.186 34.1193 258.229 35.5855 258.867 37.3477L259.807 37.0073ZM256.357 32.1573L256.996 31.3877C255.187 29.8867 252.693 29.2073 249.657 29.2073V30.2073V31.2073C252.421 31.2073 254.394 31.8278 255.718 32.9268L256.357 32.1573ZM249.657 30.2073V29.2073C248.386 29.2073 247.046 29.4069 245.642 29.7931L245.907 30.7573L246.172 31.7215C247.435 31.3743 248.595 31.2073 249.657 31.2073V30.2073ZM245.907 30.7573L245.642 29.7931C244.135 30.2073 242.749 31.0112 241.482 32.1692L242.157 32.9073L242.832 33.6453C243.899 32.67 245.012 32.0405 246.172 31.7215L245.907 30.7573ZM242.157 32.9073L241.494 32.1587C240.167 33.3339 239.124 35.0257 238.321 37.1545L239.257 37.5073L240.193 37.8601C240.923 35.9222 241.814 34.5473 242.82 33.6559L242.157 32.9073ZM239.257 37.5073L238.316 37.168C237.528 39.3533 237.157 42.1821 237.157 45.6073H238.157H239.157C239.157 42.2991 239.519 39.7278 240.198 37.8465L239.257 37.5073ZM238.157 45.6073L238.586 44.7038L230.786 41.0038L230.357 41.9073L229.928 42.8108L237.728 46.5108L238.157 45.6073ZM230.357 41.9073H231.357C231.357 37.7806 232.194 33.9249 233.864 30.3284L232.957 29.9073L232.05 29.4861C230.253 33.3563 229.357 37.5006 229.357 41.9073H230.357ZM232.957 29.9073L233.864 30.3284C235.519 26.7644 237.995 23.8896 241.31 21.6905L240.757 20.8573L240.204 20.024C236.585 22.4249 233.862 25.5835 232.05 29.4861L232.957 29.9073ZM240.757 20.8573L241.306 21.693C244.605 19.5254 248.801 18.4073 253.957 18.4073V17.4073V16.4073C248.513 16.4073 243.909 17.5892 240.208 20.0216L240.757 20.8573ZM253.957 17.4073V18.4073C258.087 18.4073 261.359 19.1079 263.834 20.4381L264.307 19.5573L264.78 18.6764C261.922 17.1399 258.293 16.4073 253.957 16.4073V17.4073ZM264.307 19.5573L263.834 20.4381C266.377 21.8051 268.312 23.5171 269.675 25.562L270.507 25.0073L271.339 24.4526C269.769 22.0974 267.57 20.1761 264.78 18.6764L264.307 19.5573ZM270.507 25.0073L269.681 25.5706C271.121 27.6835 272.138 29.8801 272.74 32.1624L273.707 31.9073L274.674 31.6521C274.01 29.1344 272.893 26.731 271.333 24.4439L270.507 25.0073ZM273.707 31.9073L272.741 32.1658C273.361 34.4843 273.731 36.586 273.859 38.4749L274.857 38.4073L275.855 38.3396C275.716 36.2952 275.319 34.0635 274.673 31.6488L273.707 31.9073ZM274.857 38.4073L273.859 38.4749C273.992 40.439 274.057 41.8435 274.057 42.7073H275.057H276.057C276.057 41.771 275.988 40.3089 275.855 38.3396L274.857 38.4073ZM275.057 42.7073H274.057V73.0073H275.057H276.057V42.7073H275.057ZM275.057 73.0073V72.0073H261.257V73.0073V74.0073H275.057V73.0073ZM224.357 73.0073H225.357V1.00726H224.357H223.357V73.0073H224.357ZM224.357 1.00726V2.00726H236.457V1.00726V0.00726318H224.357V1.00726ZM236.457 1.00726H235.457V38.0073H236.457H237.457V1.00726H236.457ZM236.457 38.0073V39.0073H238.157V38.0073V37.0073H236.457V38.0073ZM238.157 38.0073H237.157V73.0073H238.157H239.157V38.0073H238.157ZM238.157 73.0073V72.0073H224.357V73.0073V74.0073H238.157V73.0073ZM312.051 71.0073L311.577 71.888L311.582 71.8907L312.051 71.0073ZM301.751 61.0573L302.617 60.5568V60.5568L301.751 61.0573ZM298.051 1.10726L298.044 0.107285L297.051 0.114479V1.10726H298.051ZM311.851 1.00726H312.851V-1.52588e-05L311.844 0.00728607L311.851 1.00726ZM313.051 52.3573L313.975 51.9749V51.9749L313.051 52.3573ZM316.351 57.3573L315.644 58.0644L315.652 58.0726L316.351 57.3573ZM321.301 60.6073L320.921 61.5323L320.931 61.5363L320.941 61.5402L321.301 60.6073ZM333.451 60.5573L333.077 59.6299L333.071 59.6322L333.451 60.5573ZM341.651 52.3073L340.727 51.9249L340.724 51.9318L340.721 51.9386L341.651 52.3073ZM342.851 1.00726V0.00726318H341.851V1.00726H342.851ZM356.651 1.00726H357.651V0.00726318H356.651V1.00726ZM352.951 61.0573L353.817 61.5578L352.951 61.0573ZM342.651 71.0073L343.119 71.8907L343.124 71.8879L342.651 71.0073ZM327.351 74.5073V73.5073C321.687 73.5073 316.753 72.3689 312.519 70.1238L312.051 71.0073L311.582 71.8907C316.149 74.3123 321.414 75.5073 327.351 75.5073V74.5073ZM312.051 71.0073L312.524 70.1266C308.286 67.8465 304.989 64.6605 302.617 60.5568L301.751 61.0573L300.885 61.5578C303.446 65.9874 307.016 69.4347 311.577 71.8879L312.051 71.0073ZM301.751 61.0573L302.617 60.5568C300.252 56.4664 299.051 51.6284 299.051 46.0073H298.051H297.051C297.051 51.9195 298.316 57.1148 300.885 61.5578L301.751 61.0573ZM298.051 46.0073H299.051V1.10726H298.051H297.051V46.0073H298.051ZM298.051 1.10726L298.058 2.10723L311.858 2.00723L311.851 1.00726L311.844 0.00728607L298.044 0.107285L298.051 1.10726ZM311.851 1.00726H310.851V45.9073H311.851H312.851V1.00726H311.851ZM311.851 45.9073H310.851C310.851 48.388 311.27 50.6702 312.127 52.7396L313.051 52.3573L313.975 51.9749C313.231 50.1777 312.851 48.1599 312.851 45.9073H311.851ZM313.051 52.3573L312.127 52.7396C312.974 54.7874 314.146 56.5662 315.644 58.0644L316.351 57.3573L317.058 56.6502C315.756 55.3483 314.727 53.7938 313.975 51.9749L313.051 52.3573ZM316.351 57.3573L315.652 58.0726C317.178 59.563 318.936 60.7172 320.921 61.5323L321.301 60.6073L321.681 59.6822C319.932 58.964 318.39 57.9515 317.05 56.6419L316.351 57.3573ZM321.301 60.6073L320.941 61.5402C322.961 62.3199 325.1 62.7073 327.351 62.7073V61.7073V60.7073C325.335 60.7073 323.441 60.3613 321.661 59.6743L321.301 60.6073ZM327.351 61.7073V62.7073C329.669 62.7073 331.833 62.3028 333.831 61.4823L333.451 60.5573L333.071 59.6322C331.335 60.3451 329.432 60.7073 327.351 60.7073V61.7073ZM333.451 60.5573L333.825 61.4846C335.845 60.6694 337.61 59.5127 339.108 58.0144L338.401 57.3073L337.694 56.6002C336.392 57.9018 334.856 58.9118 333.077 59.6299L333.451 60.5573ZM338.401 57.3073L339.108 58.0144C340.609 56.5131 341.766 54.7295 342.58 52.6759L341.651 52.3073L340.721 51.9386C340.002 53.7517 338.992 55.3015 337.694 56.6002L338.401 57.3073ZM341.651 52.3073L342.575 52.6896C343.43 50.6218 343.851 48.3567 343.851 45.9073H342.851H341.851C341.851 48.1245 341.471 50.126 340.727 51.9249L341.651 52.3073ZM342.851 45.9073H343.851V1.00726H342.851H341.851V45.9073H342.851ZM342.851 1.00726V2.00726H356.651V1.00726V0.00726318H342.851V1.00726ZM356.651 1.00726H355.651V46.0073H356.651H357.651V1.00726H356.651ZM356.651 46.0073H355.651C355.651 51.6284 354.45 56.4664 352.085 60.5568L352.951 61.0573L353.817 61.5578C356.385 57.1148 357.651 51.9195 357.651 46.0073H356.651ZM352.951 61.0573L352.085 60.5568C349.713 64.6605 346.416 67.8465 342.177 70.1266L342.651 71.0073L343.124 71.8879C347.686 69.4347 351.256 65.9874 353.817 61.5578L352.951 61.0573ZM342.651 71.0073L342.182 70.1238C337.949 72.3689 333.014 73.5073 327.351 73.5073V74.5073V75.5073C333.287 75.5073 338.553 74.3123 343.119 71.8907L342.651 71.0073ZM370.209 69.9073L369.612 70.7096L369.62 70.7149L370.209 69.9073ZM362.609 56.8073L362.46 55.8185L361.463 55.9691L361.622 56.965L362.609 56.8073ZM376.509 54.7073L377.485 54.489L377.282 53.5792L376.36 53.7185L376.509 54.7073ZM380.259 60.6573L379.664 61.4606L379.67 61.4654L380.259 60.6573ZM393.409 61.4073L393.983 62.2265L393.99 62.2217L393.996 62.2169L393.409 61.4073ZM394.609 54.8573L393.828 55.482L393.836 55.4918L393.844 55.5014L394.609 54.8573ZM391.009 52.9073L390.683 53.8525L390.688 53.8542L391.009 52.9073ZM382.409 50.4073L382.665 49.4406L382.659 49.4389L382.409 50.4073ZM371.859 46.6073L371.39 47.4902V47.4902L371.859 46.6073ZM366.159 41.6073L365.299 42.1175L365.303 42.1239L366.159 41.6073ZM367.059 25.5073L367.88 26.0793L367.883 26.0742L367.059 25.5073ZM374.509 19.6073L374.902 20.5269L374.907 20.5249L374.509 19.6073ZM397.159 19.4573L397.529 18.5281V18.5281L397.159 19.4573ZM405.059 25.0073L404.291 25.6475L404.296 25.6537L405.059 25.0073ZM408.809 33.5073L408.986 34.4915L409.936 34.3207L409.799 33.3658L408.809 33.5073ZM394.909 36.0073L393.916 36.1231L394.039 37.1798L395.086 36.9915L394.909 36.0073ZM386.209 29.2073L386.287 28.2102L386.276 28.2095L386.209 29.2073ZM380.159 30.2073L379.682 29.3286L379.674 29.3331L380.159 30.2073ZM378.859 36.1573L378.152 36.8644L378.161 36.8734L378.171 36.8823L378.859 36.1573ZM382.909 38.1073L382.598 39.0575L382.602 39.059L382.909 38.1073ZM392.309 40.7073L392.561 39.7395L392.556 39.738L392.309 40.7073ZM402.159 44.4573L401.657 45.3219L401.664 45.3259L401.671 45.3298L402.159 44.4573ZM407.609 49.5573L406.739 50.0503L406.743 50.0566L407.609 49.5573ZM386.709 74.5073V73.5073C380.056 73.5073 374.782 72.0078 370.799 69.0996L370.209 69.9073L369.62 70.7149C374.037 73.9401 379.762 75.5073 386.709 75.5073V74.5073ZM370.209 69.9073L370.806 69.105C366.87 66.1767 364.46 62.053 363.597 56.6495L362.609 56.8073L361.622 56.965C362.559 62.8282 365.215 67.4379 369.612 70.7096L370.209 69.9073ZM362.609 56.8073L362.759 57.796L376.659 55.696L376.509 54.7073L376.36 53.7185L362.46 55.8185L362.609 56.8073ZM376.509 54.7073L375.533 54.9256C376.148 57.6733 377.522 59.8725 379.664 61.4606L380.259 60.6573L380.855 59.854C379.13 58.5753 378.004 56.8079 377.485 54.489L376.509 54.7073ZM380.259 60.6573L379.67 61.4654C381.845 63.05 384.548 63.8073 387.709 63.8073V62.8073V61.8073C384.871 61.8073 382.607 61.1312 380.848 59.8491L380.259 60.6573ZM387.709 62.8073V63.8073C390.282 63.8073 392.415 63.3239 393.983 62.2265L393.409 61.4073L392.836 60.588C391.737 61.3573 390.07 61.8073 387.709 61.8073V62.8073ZM393.409 61.4073L393.996 62.2169C395.599 61.0551 396.409 59.4155 396.409 57.4073H395.409H394.409C394.409 58.799 393.887 59.8261 392.822 60.5977L393.409 61.4073ZM395.409 57.4073H396.409C396.409 56.1742 396.099 55.0735 395.374 54.2131L394.609 54.8573L393.844 55.5014C394.187 55.9077 394.409 56.507 394.409 57.4073H395.409ZM394.609 54.8573L395.39 54.2326C395.005 53.7511 394.441 53.3455 393.786 52.9905C393.12 52.6296 392.296 52.2879 391.331 51.9603L391.009 52.9073L390.688 53.8542C391.589 54.16 392.299 54.4599 392.833 54.7491C393.378 55.0441 393.68 55.2968 393.828 55.482L394.609 54.8573ZM391.009 52.9073L391.336 51.9621C389.466 51.3161 386.57 50.4751 382.665 49.4406L382.409 50.4073L382.153 51.3739C386.049 52.4061 388.886 53.2318 390.683 53.8525L391.009 52.9073ZM382.409 50.4073L382.659 49.4389C378.3 48.3161 374.866 47.0733 372.329 45.7243L371.859 46.6073L371.39 47.4902C374.119 48.9412 377.719 50.2317 382.16 51.3757L382.409 50.4073ZM371.859 46.6073L372.329 45.7243C369.805 44.3827 368.063 42.827 367.016 41.0906L366.159 41.6073L365.303 42.1239C366.589 44.2542 368.647 46.0318 371.39 47.4902L371.859 46.6073ZM366.159 41.6073L367.019 41.0971C365.962 39.3143 365.409 37.1321 365.409 34.5073H364.409H363.409C363.409 37.4158 364.024 39.9669 365.299 42.1175L366.159 41.6073ZM364.409 34.5073H365.409C365.409 31.2191 366.244 28.4246 367.88 26.0793L367.059 25.5073L366.239 24.9352C364.341 27.6566 363.409 30.8621 363.409 34.5073H364.409ZM367.059 25.5073L367.883 26.0742C369.53 23.6813 371.855 21.8281 374.902 20.5269L374.509 19.6073L374.117 18.6876C370.763 20.1197 368.122 22.1998 366.236 24.9403L367.059 25.5073ZM374.509 19.6073L374.907 20.5249C377.988 19.1906 381.648 18.5073 385.909 18.5073V17.5073V16.5073C381.438 16.5073 377.497 17.2239 374.112 18.6896L374.509 19.6073ZM385.909 17.5073V18.5073C390.041 18.5073 393.662 19.1417 396.79 20.3864L397.159 19.4573L397.529 18.5281C394.123 17.1728 390.244 16.5073 385.909 16.5073V17.5073ZM397.159 19.4573L396.79 20.3864C399.921 21.6326 402.411 23.3908 404.291 25.6474L405.059 25.0073L405.828 24.3671C403.708 21.8237 400.931 19.8819 397.529 18.5281L397.159 19.4573ZM405.059 25.0073L404.296 25.6537C406.202 27.9028 407.378 30.5588 407.819 33.6487L408.809 33.5073L409.799 33.3658C409.307 29.9224 407.983 26.9117 405.822 24.3608L405.059 25.0073ZM408.809 33.5073L408.632 32.5231L394.732 35.0231L394.909 36.0073L395.086 36.9915L408.986 34.4915L408.809 33.5073ZM394.909 36.0073L395.903 35.8914C395.64 33.6428 394.649 31.8098 392.923 30.4679L392.309 31.2573L391.695 32.0466C392.97 33.0381 393.712 34.3717 393.916 36.1231L394.909 36.0073ZM392.309 31.2573L392.923 30.4679C391.223 29.1453 388.982 28.4202 386.287 28.2103L386.209 29.2073L386.132 30.2042C388.571 30.3943 390.396 31.0359 391.695 32.0466L392.309 31.2573ZM386.209 29.2073L386.276 28.2095C383.665 28.0354 381.439 28.3736 379.682 29.3286L380.159 30.2073L380.637 31.0859C381.946 30.3743 383.754 30.0458 386.143 30.205L386.209 29.2073ZM380.159 30.2073L379.674 29.3331C377.893 30.3223 376.909 31.837 376.909 33.8073H377.909H378.909C378.909 32.6442 379.425 31.7589 380.645 31.0814L380.159 30.2073ZM377.909 33.8073H376.909C376.909 34.9934 377.323 36.0349 378.152 36.8644L378.859 36.1573L379.566 35.4501C379.129 35.013 378.909 34.4878 378.909 33.8073H377.909ZM378.859 36.1573L378.171 36.8823C379.016 37.6852 380.563 38.3903 382.598 39.0575L382.909 38.1073L383.221 37.157C381.189 36.4909 380.036 35.896 379.548 35.4323L378.859 36.1573ZM382.909 38.1073L382.602 39.059C384.7 39.7357 387.859 40.6087 392.063 41.6765L392.309 40.7073L392.556 39.738C388.36 38.6725 385.252 37.8121 383.216 37.1555L382.909 38.1073ZM392.309 40.7073L392.058 41.675C396.108 42.7288 399.297 43.9504 401.657 45.3219L402.159 44.4573L402.662 43.5926C400.089 42.0974 396.711 40.8191 392.561 39.7395L392.309 40.7073ZM402.159 44.4573L401.671 45.3298C404.05 46.6623 405.716 48.2441 406.739 50.0503L407.609 49.5573L408.479 49.0643C407.236 46.8704 405.268 45.0522 402.648 43.5848L402.159 44.4573ZM407.609 49.5573L406.743 50.0566C407.771 51.8397 408.309 54.0419 408.309 56.7073H409.309H410.309C410.309 53.7726 409.715 51.2082 408.476 49.058L407.609 49.5573ZM409.309 56.7073H408.309C408.309 61.9647 406.427 66.0139 402.689 68.9732L403.309 69.7573L403.93 70.5413C408.192 67.1673 410.309 62.5165 410.309 56.7073H409.309ZM403.309 69.7573L402.689 68.9732C398.922 71.9548 393.636 73.5073 386.709 73.5073V74.5073V75.5073C393.916 75.5073 399.696 73.893 403.93 70.5413L403.309 69.7573Z" fill="url(#paint0_linear_434_1346)" mask="url(#path-1-outside-1_434_1346)"/>
<defs>
<linearGradient id="paint0_linear_434_1346" x1="203.648" y1="-33.9927" x2="203.648" y2="103.007" gradientUnits="userSpaceOnUse">
<stop offset="0.274038" stop-color="#0E7BF5"/>
<stop offset="1" stop-color="white"/>
</linearGradient>
</defs>
</svg>
