<svg width="1006" height="195" viewBox="0 0 1006 195" fill="none" xmlns="http://www.w3.org/2000/svg">
<path d="M45.4 147V28.4H1.41561e-07V2.99999H118V28.4H72.6V147H45.4ZM114.109 147V39H138.109V65.4L135.509 62C136.909 58.2667 138.776 54.8667 141.109 51.8C143.443 48.7333 146.309 46.2 149.709 44.2C152.309 42.6 155.143 41.3667 158.209 40.5C161.276 39.5667 164.443 39 167.709 38.8C170.976 38.5333 174.243 38.6 177.509 39V64.4C174.509 63.4667 171.009 63.1667 167.009 63.5C163.076 63.7667 159.509 64.6667 156.309 66.2C153.109 67.6667 150.409 69.6333 148.209 72.1C146.009 74.5 144.343 77.3667 143.209 80.7C142.076 83.9667 141.509 87.6667 141.509 91.8V147H114.109ZM196.425 195L217.225 137.8L217.625 154.6L170.625 39H198.825L230.425 120.8H224.025L255.425 39H282.625L221.625 195H196.425ZM378.527 150C364.127 150 351.693 146.867 341.227 140.6C330.827 134.333 322.793 125.567 317.127 114.3C311.527 103.033 308.727 89.9333 308.727 75C308.727 60.0667 311.527 46.9667 317.127 35.7C322.793 24.4333 330.827 15.6667 341.227 9.4C351.693 3.13333 364.127 -2.86102e-06 378.527 -2.86102e-06C395.06 -2.86102e-06 408.927 4.09999 420.127 12.3C431.393 20.5 439.327 31.6 443.927 45.6L416.527 53.2C413.86 44.4667 409.36 37.7 403.027 32.9C396.693 28.0333 388.527 25.6 378.527 25.6C369.393 25.6 361.76 27.6333 355.627 31.7C349.56 35.7667 344.993 41.5 341.927 48.9C338.86 56.3 337.327 65 337.327 75C337.327 85 338.86 93.7 341.927 101.1C344.993 108.5 349.56 114.233 355.627 118.3C361.76 122.367 369.393 124.4 378.527 124.4C388.527 124.4 396.693 121.967 403.027 117.1C409.36 112.233 413.86 105.467 416.527 96.8L443.927 104.4C439.327 118.4 431.393 129.5 420.127 137.7C408.927 145.9 395.06 150 378.527 150ZM506.145 150C495.079 150 485.312 147.633 476.845 142.9C468.445 138.1 461.845 131.533 457.045 123.2C452.312 114.8 449.945 105.2 449.945 94.4C449.945 82.6 452.279 72.3333 456.945 63.6C461.612 54.8667 468.045 48.1 476.245 43.3C484.445 38.4333 493.879 36 504.545 36C515.879 36 525.512 38.6667 533.445 44C541.379 49.3333 547.245 56.8333 551.045 66.5C554.845 76.1667 556.179 87.5333 555.045 100.6H528.145V90.6C528.145 79.6 526.379 71.7 522.845 66.9C519.379 62.0333 513.679 59.6 505.745 59.6C496.479 59.6 489.645 62.4333 485.245 68.1C480.912 73.7 478.745 82 478.745 93C478.745 103.067 480.912 110.867 485.245 116.4C489.645 121.867 496.079 124.6 504.545 124.6C509.879 124.6 514.445 123.433 518.245 121.1C522.045 118.767 524.945 115.4 526.945 111L554.145 118.8C550.079 128.667 543.645 136.333 534.845 141.8C526.112 147.267 516.545 150 506.145 150ZM470.345 100.6V80.4H541.945V100.6H470.345ZM576.625 147V39.4C576.625 36.6667 576.692 33.5667 576.825 30.1C576.958 26.6333 577.492 23.1333 578.425 19.6C579.425 16.0667 581.225 12.8667 583.825 9.99999C587.158 6.26665 590.758 3.73332 594.625 2.39999C598.558 0.999988 602.358 0.266656 606.025 0.199995C609.692 0.0666629 612.825 -2.86102e-06 615.425 -2.86102e-06H628.825V22H616.425C612.158 22 608.992 23.1 606.925 25.3C604.858 27.4333 603.825 30 603.825 33V147H576.625ZM559.625 60V39H628.825V60H559.625ZM681.067 150C670.001 150 660.234 147.633 651.767 142.9C643.367 138.1 636.767 131.533 631.967 123.2C627.234 114.8 624.867 105.2 624.867 94.4C624.867 82.6 627.201 72.3333 631.867 63.6C636.534 54.8667 642.967 48.1 651.167 43.3C659.367 38.4333 668.801 36 679.467 36C690.801 36 700.434 38.6667 708.367 44C716.301 49.3333 722.167 56.8333 725.967 66.5C729.767 76.1667 731.101 87.5333 729.967 100.6H703.067V90.6C703.067 79.6 701.301 71.7 697.767 66.9C694.301 62.0333 688.601 59.6 680.667 59.6C671.401 59.6 664.567 62.4333 660.167 68.1C655.834 73.7 653.667 82 653.667 93C653.667 103.067 655.834 110.867 660.167 116.4C664.567 121.867 671.001 124.6 679.467 124.6C684.801 124.6 689.367 123.433 693.167 121.1C696.967 118.767 699.867 115.4 701.867 111L729.067 118.8C725.001 128.667 718.567 136.333 709.767 141.8C701.034 147.267 691.467 150 681.067 150ZM645.267 100.6V80.4H716.867V100.6H645.267ZM742.547 147V39H766.547V65.4L763.947 62C765.347 58.2667 767.214 54.8667 769.547 51.8C771.88 48.7333 774.747 46.2 778.147 44.2C780.747 42.6 783.58 41.3667 786.647 40.5C789.714 39.5667 792.88 39 796.147 38.8C799.414 38.5333 802.68 38.6 805.947 39V64.4C802.947 63.4667 799.447 63.1667 795.447 63.5C791.514 63.7667 787.947 64.6667 784.747 66.2C781.547 67.6667 778.847 69.6333 776.647 72.1C774.447 74.5 772.78 77.3667 771.647 80.7C770.514 83.9667 769.947 87.6667 769.947 91.8V147H742.547ZM803.353 147V119.8H830.553V147H803.353ZM855.016 24V-2.86102e-06H882.216V24H855.016ZM855.016 147V39H882.216V147H855.016ZM950.795 150C939.929 150 930.395 147.567 922.195 142.7C913.995 137.833 907.595 131.133 902.995 122.6C898.462 114 896.195 104.133 896.195 93C896.195 81.7333 898.529 71.8333 903.195 63.3C907.862 54.7 914.295 48 922.495 43.2C930.695 38.4 940.129 36 950.795 36C961.662 36 971.195 38.4333 979.395 43.3C987.662 48.1667 994.095 54.9 998.695 63.5C1003.3 72.0333 1005.6 81.8667 1005.6 93C1005.6 104.2 1003.26 114.1 998.595 122.7C993.995 131.233 987.562 137.933 979.295 142.8C971.095 147.6 961.595 150 950.795 150ZM950.795 124.6C959.529 124.6 966.029 121.667 970.295 115.8C974.629 109.867 976.795 102.267 976.795 93C976.795 83.4 974.595 75.7333 970.195 70C965.862 64.2667 959.395 61.4 950.795 61.4C944.862 61.4 939.995 62.7333 936.195 65.4C932.395 68.0667 929.562 71.7667 927.695 76.5C925.895 81.2333 924.995 86.7333 924.995 93C924.995 102.667 927.162 110.367 931.495 116.1C935.895 121.767 942.329 124.6 950.795 124.6Z" fill="url(#paint0_linear_439_1415)" fill-opacity="0.26"/>
<defs>
<linearGradient id="paint0_linear_439_1415" x1="505.793" y1="207" x2="505.793" y2="-66" gradientUnits="userSpaceOnUse">
<stop stop-color="#E0E0E0"/>
<stop offset="1" stop-color="#0E7BF5"/>
</linearGradient>
</defs>
</svg>
